<?xml version="1.0" standalone="no"?><!-- Generator: Adobe Fireworks CS6, Export SVG Extension by Aaron Beall (http://fireworks.abeall.com) . Version: 0.6.1  --><!DOCTYPE svg PUBLIC "-//W3C//DTD SVG 1.1//EN" "http://www.w3.org/Graphics/SVG/1.1/DTD/svg11.dtd"><svg id="Untitled-P%E1gina%201" viewBox="0 0 90 90" style="background-color:#ffffff00" version="1.1"	xmlns="http://www.w3.org/2000/svg" xmlns:xlink="http://www.w3.org/1999/xlink" xml:space="preserve"	x="0px" y="0px" width="90px" height="90px">	<g id="Capa%201">		<g>			<g>				<rect x="0" y="0" width="90" height="90" fill="#97bd3d"/>				<g>					<g>						<path d="M 20.603 20.9052 C 20.4365 19.9409 19.999 18.4526 18.4574 18.4526 C 15.9164 18.4526 15.9164 21.7225 15.9164 23.5254 C 15.9164 26.439 16.1246 27.3406 16.6035 28.0954 C 16.9996 28.7239 17.8534 29.0597 18.562 29.0597 C 18.7283 29.0597 19.8114 29.1016 20.8528 28.2206 L 20.8528 25.7059 L 18.6036 25.7059 L 18.6036 23.3372 L 23.6652 23.3372 L 23.6652 29.667 C 22.4153 30.5899 21.0616 31.5123 18.3955 31.5123 C 13.6048 31.5123 13 27.1306 13 24.0076 C 13 20.5488 13.4796 18.9979 14.6041 17.6978 C 16.0619 16 17.8534 16 18.6242 16 C 22.6656 16 23.1439 18.7252 23.4148 20.2974 L 20.603 20.9052 Z" fill="#ffffff"/>					</g>					<path d="M 28.3923 16.2514 L 28.3923 28.8921 L 34.079 28.8921 L 34.079 31.2609 L 25.5805 31.2609 L 25.5805 16.2514 L 28.3923 16.2514 Z" fill="#ffffff"/>					<g>						<path d="M 39.7864 29.1011 C 40.8071 29.1011 41.4527 28.4513 41.7439 27.8854 C 42.0567 27.2568 42.286 26.6278 42.286 23.2528 C 42.286 21.9114 42.286 18.4526 39.7864 18.4526 C 38.9532 18.4526 38.0988 18.8928 37.6408 20.2348 C 37.328 21.1566 37.2661 23.2528 37.2661 24.2802 C 37.2661 25.6423 37.2866 29.1011 39.7864 29.1011 L 39.7864 29.1011 ZM 45.2019 23.9657 C 45.2019 25.8528 45.1814 31.5117 39.7654 31.5117 C 35.7455 31.5117 34.3496 28.4513 34.3496 23.5673 C 34.3496 19.7102 35.4538 16 39.7451 16 C 44.5352 16 45.2019 20.4023 45.2019 23.9657 L 45.2019 23.9657 Z" fill="#ffffff"/>						<path d="M 49.6378 28.829 L 50.5757 28.829 C 51.5959 28.829 53.0959 28.6826 53.0959 26.7535 C 53.0959 24.7623 51.325 24.7411 50.5757 24.7411 L 49.6378 24.7411 L 49.6378 28.829 ZM 49.6378 22.3097 L 50.4295 22.3097 C 50.9713 22.3097 52.6373 22.3097 52.6373 20.4862 C 52.6373 18.6833 51.0127 18.6833 50.5757 18.6833 L 49.6378 18.6833 L 49.6378 22.3097 ZM 51.2003 16.2514 C 54.4707 16.2514 55.4081 18.18 55.4081 19.9622 C 55.4081 21.2828 54.9292 22.6455 53.0753 23.2947 L 53.0753 23.3365 C 55.3034 23.7556 56.012 25.3071 56.012 27.0892 C 56.012 28.8921 55.1374 31.2609 51.5126 31.2609 L 46.8682 31.2609 L 46.8682 16.2514 L 51.2003 16.2514 Z" fill="#ffffff"/>					</g>					<path d="M 64.1355 25.8317 L 62.5933 19.0392 L 62.552 19.0392 L 60.9898 25.8317 L 64.1355 25.8317 ZM 64.1144 16.2514 L 68.3422 31.2609 L 65.4052 31.2609 L 64.7187 28.2837 L 60.4069 28.2837 L 59.698 31.2609 L 56.7612 31.2609 L 61.0314 16.2514 L 64.1144 16.2514 Z" fill="#ffffff"/>					<path d="M 72.1747 16.2514 L 72.1747 28.8921 L 77.8608 28.8921 L 77.8608 31.2609 L 69.3628 31.2609 L 69.3628 16.2514 L 72.1747 16.2514 Z" fill="#ffffff"/>				</g>				<g>					<path d="M 21.7237 38.2263 L 21.7237 40.6447 L 16.408 40.6447 L 16.408 44.4539 L 20.6606 44.4539 L 20.6606 46.8711 L 16.408 46.8711 L 16.408 53.5471 L 13.5378 53.5471 L 13.5378 38.2263 L 21.7237 38.2263 Z" fill="#493f43"/>					<g>						<path d="M 28.527 51.3438 C 29.5684 51.3438 30.2276 50.6798 30.5253 50.1024 C 30.8443 49.4603 31.0784 48.8182 31.0784 45.3735 C 31.0784 44.0038 31.0784 40.4738 28.527 40.4738 C 27.6764 40.4738 26.8044 40.9227 26.337 42.2924 C 26.0177 43.2333 25.9539 45.3735 25.9539 46.4222 C 25.9539 47.8131 25.9755 51.3438 28.527 51.3438 L 28.527 51.3438 ZM 34.0546 46.1011 C 34.0546 48.027 34.0338 53.8044 28.5053 53.8044 C 24.4019 53.8044 22.9771 50.6798 22.9771 45.6941 C 22.9771 41.7575 24.104 37.97 28.4837 37.97 C 33.3741 37.97 34.0546 42.4633 34.0546 46.1011 L 34.0546 46.1011 Z" fill="#493f43"/>						<path d="M 38.7528 44.8381 L 40.1988 44.8381 C 41.8569 44.8381 43.239 44.4958 43.239 42.7202 C 43.239 40.7296 41.3465 40.7296 40.454 40.7296 L 38.7528 40.7296 L 38.7528 44.8381 ZM 40.9639 38.2263 C 41.0701 38.2263 42.2397 38.2476 43.218 38.4407 C 44.6212 38.7401 46.1733 40.0237 46.1733 42.5917 C 46.1733 45.6511 43.7706 46.4216 42.8776 46.6785 L 42.8776 46.7215 C 43.2601 46.8499 43.6008 46.9565 44.1323 47.5345 C 44.4295 47.855 45.2165 49.1823 45.3655 49.4603 L 47.3638 53.5471 L 44.1113 53.5471 L 41.7934 49.1393 C 40.7514 47.171 40.3261 47.171 39.1992 47.171 L 38.7528 47.171 L 38.7528 53.5471 L 35.8826 53.5471 L 35.8826 38.2263 L 40.9639 38.2263 Z" fill="#493f43"/>					</g>					<path d="M 56.2075 38.2263 L 56.2075 40.6447 L 51.1051 40.6447 L 51.1051 44.2819 L 55.7187 44.2819 L 55.7187 46.6997 L 51.1051 46.6997 L 51.1051 51.1293 L 56.4627 51.1293 L 56.4627 53.5471 L 48.2346 53.5471 L 48.2346 38.2263 L 56.2075 38.2263 Z" fill="#493f43"/>					<g>						<path d="M 64.1379 42.6989 C 64.0314 41.9926 63.8195 40.366 62.31 40.366 C 61.5443 40.366 60.7365 40.8373 60.7365 41.8647 C 60.7365 43.1266 62.0547 43.747 63.458 44.4104 C 66.0305 45.6299 67.434 46.8711 67.434 49.2035 C 67.434 51.5788 65.8821 53.804 62.4795 53.804 C 57.8443 53.804 57.5891 50.1874 57.4828 48.6044 L 60.4169 48.3262 C 60.5231 49.6959 60.8 51.3007 62.6074 51.3007 C 64.0531 51.3007 64.5851 50.2521 64.5851 49.4174 C 64.5851 47.9834 63.2668 47.3636 61.4164 46.5294 C 59.758 45.7795 57.8871 44.7314 57.8871 42.121 C 57.8871 39.9813 59.3538 37.9695 62.5652 37.9695 C 66.5621 37.9695 66.9236 40.9652 67.0085 42.5275 L 64.1379 42.6989 Z" fill="#493f43"/>					</g>					<path d="M 78 38.2263 L 78 40.6447 L 74.4922 40.6447 L 74.4922 53.5471 L 71.6217 53.5471 L 71.6217 40.6447 L 68.1129 40.6447 L 68.1129 38.2263 L 78 38.2263 Z" fill="#493f43"/>				</g>				<g>					<path d="M 16.8836 60.3727 L 18.7218 71.2448 L 18.7672 71.2448 L 21.3773 60.3727 L 25.0087 60.3727 L 27.5504 71.1985 L 27.5958 71.1985 L 29.4568 60.3727 L 32.6339 60.3727 L 29.3886 76.7257 L 26.0071 76.7257 L 23.1704 64.7582 L 23.125 64.7582 L 20.265 76.7257 L 16.8836 76.7257 L 13.7289 60.3727 L 16.8836 60.3727 Z" fill="#ffffff"/>					<path d="M 40.0138 70.8105 L 38.3343 63.4103 L 38.2889 63.4103 L 36.5869 70.8105 L 40.0138 70.8105 ZM 39.9911 60.3727 L 44.5984 76.7257 L 41.3987 76.7257 L 40.6494 73.483 L 35.9518 73.483 L 35.1799 76.7257 L 31.9798 76.7257 L 36.632 60.3727 L 39.9911 60.3727 Z" fill="#ffffff"/>					<path d="M 54.2914 60.3727 L 54.2914 62.9537 L 50.5468 62.9537 L 50.5468 76.7257 L 47.4825 76.7257 L 47.4825 62.9537 L 43.7376 62.9537 L 43.7376 60.3727 L 54.2914 60.3727 Z" fill="#ffffff"/>					<path d="M 62.1464 65.557 C 62.0096 64.6211 61.7374 62.7714 60.1265 62.7714 C 57.8562 62.7714 57.8562 65.8776 57.8562 68.4124 C 57.8562 71.519 58.0379 72.363 58.4237 73.163 C 58.7422 73.8253 59.4233 74.3275 60.1492 74.3275 C 61.8961 74.3275 62.214 72.2716 62.373 70.8791 L 65.3911 71.8613 C 64.8474 75.9269 62.5771 77 60.2173 77 C 55.2466 77 54.6797 71.9299 54.6797 68.618 C 54.6797 65.3976 54.9065 60.0984 60.1714 60.0984 C 64.1663 60.0984 64.8923 63.0457 65.2556 64.8496 L 62.1464 65.557 Z" fill="#ffffff"/>					<path d="M 70.2731 60.3727 L 70.2731 66.8364 L 74.7896 66.8364 L 74.7896 60.3727 L 77.854 60.3727 L 77.854 76.7257 L 74.7896 76.7257 L 74.7896 69.4866 L 70.2731 69.4866 L 70.2731 76.7257 L 67.2099 76.7257 L 67.2099 60.3727 L 70.2731 60.3727 Z" fill="#ffffff"/>				</g>			</g>		</g>	</g></svg>